<?xml version="1.0" encoding="UTF-8" standalone="no"?>
<!DOCTYPE svg PUBLIC "-//W3C//DTD SVG 1.1//EN" "http://www.w3.org/Graphics/SVG/1.1/DTD/svg11.dtd">
<svg width="100%" height="100%" viewBox="0 0 36 36" version="1.1" xmlns="http://www.w3.org/2000/svg" xmlns:xlink="http://www.w3.org/1999/xlink" xml:space="preserve" xmlns:serif="http://www.serif.com/" style="fill-rule:evenodd;clip-rule:evenodd;stroke-linejoin:round;stroke-miterlimit:2;">
    <g transform="matrix(1,0,0,1,6.0597,1.2766)">
        <g transform="matrix(1.9045,0,0,1.9045,-136.1,-40.947)">
            <path d="M76.434,38.063L76.434,37.81C76.431,37.806 76.425,37.805 76.421,37.8C76.424,37.891 76.434,37.967 76.434,38.063Z" style="fill:rgb(186,12,47);fill-rule:nonzero;"/>
            <path d="M78.752,27.925C78.313,27.925 77.925,28.045 77.304,28.309L75.934,28.885C75.934,28.885 75.907,24.593 75.934,23.265C75.946,22.672 76.838,22.344 76.838,22.344L76.855,21.5L75.934,21.829C74.641,22.189 72.754,22.525 71.461,22.669L71.461,23.341C72.986,23.461 73.09,23.653 73.09,25.069L73.09,32.922L75.934,32.913L75.934,29.678C76.348,29.534 76.813,29.414 77.356,29.414C79.166,29.414 80.872,30.758 80.872,33.686C80.872,35.41 80.417,36.651 79.695,37.376C79.201,37.873 78.582,38.126 77.899,38.126C77.217,38.109 76.744,38.152 76.434,37.81L76.434,38.063C76.434,37.968 76.424,37.892 76.421,37.8C76.42,37.799 76.418,37.799 76.417,37.797L73.089,37.875L73.089,38.198C74.744,38.822 76.063,39.062 77.355,39.062C81.026,39.062 84,36.494 84,32.989C84.001,30.253 81.751,27.925 78.752,27.925Z" style="fill:rgb(186,12,47);fill-rule:nonzero;"/>
        </g>
        <rect x="0" y="30.234" width="22.422" height="3.213" style="fill:rgb(186,12,47);"/>
        <g transform="matrix(1.9045,0,0,1.9045,-136.1,-40.947)">
            <path d="M73.052,33.998L73.989,32.852L75.005,32.852L75.943,33.998L73.052,33.998Z" style="fill:rgb(186,12,47);fill-rule:nonzero;"/>
        </g>
    </g>
</svg>
