<?xml version="1.0" encoding="UTF-8"?>
<svg width="36" height="36" version="1.2" viewBox="0 0 36 36" xml:space="preserve" xmlns="http://www.w3.org/2000/svg">
<g transform="translate(6.0597 1.2766)" fill="#9d0917"><g transform="matrix(1.9045 0 0 1.9045 -136.1 -40.947)">
		<path d="m76.434 38.063v-0.253c-3e-3 -4e-3 -9e-3 -5e-3 -0.013-0.01 3e-3 0.091 0.013 0.167 0.013 0.263z"/>
		<path d="m78.752 27.925c-0.439 0-0.827 0.12-1.448 0.384l-1.37 0.576s-0.027-4.292 0-5.62c0.012-0.593 0.904-0.921 0.904-0.921l0.017-0.844-0.921 0.329c-1.293 0.36-3.18 0.696-4.473 0.84v0.672c1.525 0.12 1.629 0.312 1.629 1.728v7.853l2.844-9e-3v-3.235c0.414-0.144 0.879-0.264 1.422-0.264 1.81 0 3.516 1.344 3.516 4.272 0 1.724-0.455 2.965-1.177 3.69-0.494 0.497-1.113 0.75-1.796 0.75-0.682-0.017-1.155 0.026-1.465-0.316v0.253c0-0.095-0.01-0.171-0.013-0.263-1e-3 -1e-3 -3e-3 -1e-3 -4e-3 -3e-3l-3.328 0.078v0.323c1.655 0.624 2.974 0.864 4.266 0.864 3.671 0 6.645-2.568 6.645-6.073 1e-3 -2.736-2.249-5.064-5.248-5.064z"/>
	</g><rect y="30.234" width="22.422" height="3.2129" stroke-width="1.9045"/><polygon transform="matrix(1.9045 0 0 1.9045 -136.1 -40.947)" points="73.052 33.998 73.989 32.852 75.005 32.852 75.943 33.998"/></g>

</svg>
